<svg xmlns="http://www.w3.org/2000/svg" xmlns:xlink="http://www.w3.org/1999/xlink" width="500" zoomAndPan="magnify" viewBox="0 0 375 374.999991" height="500" preserveAspectRatio="xMidYMid meet" version="1.0"><path fill="#004aad" d="M 53.65625 275.4375 C 50.003906 277.601562 46.457031 279.769531 42.820312 281.773438 C 40.34375 283.140625 37.835938 284.566406 35.167969 285.453125 C 32.722656 286.265625 30.28125 285.363281 28.226562 283.792969 C 25.824219 281.953125 24.429688 279.40625 24.152344 276.464844 C 23.960938 274.429688 24.632812 272.433594 25.835938 270.652344 C 27.316406 268.457031 29.667969 267.472656 31.78125 266.199219 C 36.039062 263.640625 40.390625 261.238281 44.710938 258.785156 C 47.75 257.0625 50.808594 255.371094 53.859375 253.65625 C 56.117188 252.386719 58.371094 251.113281 60.625 249.835938 C 61.253906 249.480469 61.882812 249.121094 62.507812 248.765625 C 61.808594 248.449219 61.128906 248.050781 60.402344 247.832031 C 55.660156 246.386719 50.898438 245.019531 46.167969 243.550781 C 43.84375 242.828125 41.457031 242.191406 39.75 240.222656 C 37.445312 237.570312 36.703125 234.472656 37.835938 231.246094 C 38.941406 228.09375 41.355469 226.191406 44.777344 225.5 C 47.734375 224.90625 50.25 226.175781 52.878906 226.960938 C 60.136719 229.128906 67.367188 231.398438 74.605469 233.632812 C 77.441406 234.507812 80.261719 235.453125 83.121094 236.234375 C 83.734375 236.402344 84.589844 236.171875 85.175781 235.84375 C 89.808594 233.234375 94.398438 230.550781 99.011719 227.910156 C 102.007812 226.191406 105.019531 224.492188 108.03125 222.800781 C 108.289062 222.65625 108.621094 222.648438 108.878906 222.503906 C 109.21875 222.316406 109.519531 222.058594 109.835938 221.832031 C 109.480469 221.59375 109.152344 221.242188 108.761719 221.140625 C 106.371094 220.523438 103.945312 220.015625 101.558594 219.371094 C 94.558594 217.46875 87.550781 215.589844 80.582031 213.5625 C 77.496094 212.667969 74.792969 211.21875 73.335938 207.957031 C 71.953125 204.867188 72.746094 201.054688 74.71875 198.734375 C 76.402344 196.746094 78.605469 195.835938 81.050781 195.558594 C 82.238281 195.425781 83.519531 195.765625 84.707031 196.082031 C 89.421875 197.335938 94.121094 198.644531 98.816406 199.972656 C 104.007812 201.4375 109.179688 202.960938 114.367188 204.421875 C 118.859375 205.683594 123.367188 206.890625 127.867188 208.125 C 128.78125 208.375 129.683594 208.691406 130.613281 208.875 C 132.285156 209.210938 133.398438 207.960938 134.667969 207.265625 C 137.816406 205.546875 140.894531 203.699219 143.992188 201.882812 C 147.839844 199.632812 151.664062 197.34375 155.519531 195.109375 C 159.632812 192.722656 163.769531 190.386719 167.886719 188.015625 C 168.15625 187.859375 168.347656 187.566406 168.578125 187.335938 C 168.355469 187.199219 168.136719 187.054688 167.914062 186.921875 C 163.558594 184.335938 159.214844 181.726562 154.84375 179.167969 C 149.546875 176.066406 144.222656 173.007812 138.910156 169.929688 C 136.96875 168.800781 134.960938 167.769531 133.09375 166.523438 C 131.855469 165.695312 130.707031 165.738281 129.386719 166.113281 C 124.484375 167.5 119.566406 168.835938 114.652344 170.195312 C 110.328125 171.394531 106.003906 172.601562 101.679688 173.804688 C 97.019531 175.101562 92.375 176.441406 87.699219 177.675781 C 85.507812 178.253906 83.28125 178.890625 81.039062 179.019531 C 77.699219 179.214844 73.546875 175.921875 72.867188 172.734375 C 71.789062 167.691406 73.980469 163.21875 79.320312 161.582031 C 84.355469 160.035156 89.480469 158.78125 94.558594 157.378906 C 99.011719 156.148438 103.457031 154.894531 107.90625 153.652344 C 108.113281 153.59375 108.324219 153.546875 108.535156 153.492188 C 108.953125 153.382812 109.371094 153.269531 109.789062 153.160156 C 109.457031 152.863281 109.164062 152.503906 108.789062 152.285156 C 103.746094 149.347656 98.695312 146.417969 93.636719 143.511719 C 90.902344 141.945312 88.121094 140.464844 85.40625 138.863281 C 83.738281 137.878906 82.199219 138.683594 80.707031 139.136719 C 74.164062 141.121094 67.660156 143.246094 61.132812 145.285156 C 57.148438 146.53125 53.167969 147.816406 49.136719 148.898438 C 44.644531 150.105469 40.972656 148.71875 38.449219 144.707031 C 36.832031 142.132812 37.183594 137.953125 39.058594 135.296875 C 40.972656 132.585938 43.898438 131.863281 46.71875 130.941406 C 51.425781 129.40625 56.183594 128.03125 60.921875 126.59375 C 61.085938 126.542969 61.261719 126.515625 61.429688 126.46875 C 61.808594 126.363281 62.191406 126.25 62.574219 126.140625 C 62.210938 125.84375 61.882812 125.484375 61.484375 125.257812 C 58.78125 123.726562 56.054688 122.238281 53.347656 120.714844 C 50.1875 118.929688 47.035156 117.132812 43.890625 115.328125 C 38.570312 112.269531 33.125 109.402344 27.984375 106.0625 C 24.726562 103.945312 23.28125 99.585938 24.988281 95.367188 C 26.5 91.625 29.199219 89.433594 33.09375 88.964844 C 34.523438 88.792969 36.226562 89.230469 37.519531 89.921875 C 41.789062 92.203125 45.925781 94.726562 50.117188 97.152344 C 54.269531 99.554688 58.441406 101.925781 62.578125 104.351562 C 65.417969 106.019531 68.214844 107.761719 71.039062 109.457031 C 71.292969 109.609375 71.597656 109.671875 71.882812 109.777344 C 71.855469 109.464844 71.867188 109.148438 71.800781 108.84375 C 70.683594 103.789062 69.527344 98.742188 68.453125 93.679688 C 68.066406 91.867188 67.777344 90.023438 67.621094 88.179688 C 67.257812 83.792969 71.855469 79.640625 76.046875 79.625 C 81.136719 79.601562 84.542969 83.453125 85.429688 88.003906 C 86.027344 91.082031 86.742188 94.132812 87.429688 97.191406 C 88.320312 101.132812 89.238281 105.070312 90.132812 109.011719 C 91.070312 113.125 91.894531 117.265625 93.003906 121.332031 C 93.253906 122.25 94.359375 123.105469 95.273438 123.648438 C 100.101562 126.511719 105.011719 129.246094 109.863281 132.070312 C 112.601562 133.660156 115.28125 135.34375 118 136.964844 C 118.238281 137.105469 118.570312 137.085938 118.859375 137.144531 C 118.835938 136.882812 118.847656 136.617188 118.78125 136.371094 C 117.492188 131.386719 116.1875 126.40625 114.902344 121.421875 C 113.632812 116.515625 112.355469 111.617188 111.125 106.703125 C 109.847656 101.601562 112.558594 96.402344 117.953125 95.402344 C 123.023438 94.464844 127.074219 97.191406 128.527344 102.492188 C 129.960938 107.707031 131.269531 112.957031 132.609375 118.199219 C 133.863281 123.109375 135.0625 128.03125 136.328125 132.941406 C 137.691406 138.214844 139 143.507812 140.574219 148.722656 C 140.886719 149.75 142.1875 150.644531 143.230469 151.25 C 149.917969 155.125 156.667969 158.890625 163.386719 162.707031 C 167.972656 165.308594 172.535156 167.949219 177.125 170.535156 C 178.265625 171.179688 178.042969 170.199219 178.046875 169.625 C 178.058594 166.238281 178.03125 162.851562 178.0625 159.464844 C 178.148438 149.390625 178.242188 139.316406 178.371094 129.242188 C 178.378906 128.390625 178.132812 127.808594 177.527344 127.210938 C 173.46875 123.199219 169.46875 119.132812 165.414062 115.121094 C 160.882812 110.636719 156.320312 106.183594 151.761719 101.726562 C 149 99.03125 146.167969 96.398438 143.453125 93.652344 C 141.601562 91.785156 140.492188 89.535156 140.511719 86.804688 C 140.539062 82.851562 143.433594 79.253906 147.457031 78.34375 C 150.992188 77.539062 153.71875 78.953125 156.234375 81.148438 C 156.792969 81.636719 157.285156 82.199219 157.8125 82.71875 C 164.199219 89.019531 170.585938 95.320312 176.972656 101.621094 C 177.207031 101.851562 177.433594 102.078125 177.664062 102.3125 C 177.894531 102.546875 178.121094 102.789062 178.351562 103.027344 C 178.449219 102.652344 178.628906 102.273438 178.632812 101.894531 C 178.652344 98 178.683594 94.101562 178.640625 90.207031 C 178.585938 84.800781 178.480469 79.398438 178.355469 73.992188 C 178.347656 73.554688 178.132812 73 177.816406 72.707031 C 174.289062 69.394531 170.71875 66.125 167.167969 62.839844 C 165.789062 61.566406 164.414062 60.292969 163.054688 59 C 159.15625 55.296875 155.265625 51.59375 151.382812 47.875 C 148.894531 45.492188 147.996094 42.484375 148.96875 39.28125 C 149.964844 36.011719 152.210938 33.753906 155.789062 32.972656 C 158.769531 32.324219 161.242188 33.296875 163.5 34.996094 C 164.914062 36.058594 166.136719 37.386719 167.433594 38.609375 C 170.835938 41.824219 174.230469 45.042969 177.636719 48.253906 C 177.789062 48.398438 178 48.488281 178.183594 48.601562 C 178.253906 48.367188 178.390625 48.128906 178.382812 47.894531 C 178.308594 45.152344 178.140625 42.40625 178.132812 39.660156 C 178.105469 29.503906 178.089844 19.34375 178.15625 9.183594 C 178.179688 5.007812 181.535156 1.402344 185.640625 0.703125 C 189.261719 0.0859375 192.277344 1.007812 194.789062 3.628906 C 196.273438 5.179688 197.042969 7.089844 197.046875 9.222656 C 197.074219 19.335938 197.070312 29.449219 197.03125 39.558594 C 197.023438 42.117188 196.835938 44.675781 196.785156 47.238281 C 196.773438 47.6875 197.03125 48.144531 197.167969 48.601562 C 197.457031 48.320312 197.742188 48.03125 198.039062 47.757812 C 200.550781 45.429688 203.078125 43.113281 205.582031 40.769531 C 207.492188 38.984375 209.335938 37.121094 211.285156 35.375 C 214.226562 32.738281 217.964844 31.941406 221.488281 33.714844 C 225.371094 35.667969 227.695312 40.074219 225.890625 44.644531 C 225.449219 45.757812 224.757812 46.855469 223.925781 47.710938 C 221.515625 50.183594 218.992188 52.542969 216.484375 54.914062 C 213.691406 57.554688 210.875 60.171875 208.050781 62.78125 C 204.535156 66.039062 200.980469 69.253906 197.496094 72.546875 C 197.074219 72.949219 196.792969 73.710938 196.78125 74.308594 C 196.714844 77.878906 196.78125 81.453125 196.734375 85.023438 C 196.683594 88.851562 196.539062 92.679688 196.464844 96.507812 C 196.429688 98.378906 196.441406 100.25 196.472656 102.121094 C 196.476562 102.445312 196.6875 102.765625 196.800781 103.089844 C 197.058594 102.875 197.339844 102.679688 197.5625 102.433594 C 197.859375 102.105469 198.070312 101.695312 198.382812 101.386719 C 205.089844 94.765625 211.792969 88.132812 218.535156 81.542969 C 220.636719 79.492188 223.058594 77.917969 226.160156 78.152344 C 230.027344 78.441406 233.527344 80.980469 234.355469 85.203125 C 235.054688 88.769531 233.855469 91.535156 231.429688 93.941406 C 229.472656 95.882812 227.441406 97.746094 225.449219 99.65625 C 224.785156 100.292969 224.148438 100.957031 223.496094 101.601562 C 214.839844 110.160156 206.183594 118.722656 197.511719 127.257812 C 196.941406 127.820312 196.695312 128.355469 196.699219 129.167969 C 196.738281 134.6875 196.679688 140.207031 196.71875 145.726562 C 196.777344 153.710938 196.882812 161.699219 196.988281 169.683594 C 196.996094 170.109375 197.175781 170.53125 197.273438 170.953125 C 197.570312 170.738281 197.847656 170.492188 198.164062 170.3125 C 200.109375 169.1875 202.058594 168.070312 204.011719 166.964844 C 208.488281 164.4375 212.96875 161.925781 217.4375 159.390625 C 221.570312 157.046875 225.691406 154.675781 229.8125 152.316406 C 230.492188 151.929688 231.113281 151.375 231.839844 151.164062 C 234.328125 150.445312 234.859375 148.386719 235.398438 146.285156 C 236.949219 140.246094 238.519531 134.214844 240.054688 128.175781 C 241.589844 122.125 243.050781 116.058594 244.617188 110.019531 C 245.460938 106.765625 246.0625 103.363281 247.472656 100.355469 C 250.273438 94.386719 257.800781 93.714844 261.933594 98.160156 C 264.527344 100.949219 264.660156 104.332031 263.734375 107.875 C 261.964844 114.613281 260.261719 121.371094 258.5 128.113281 C 257.757812 130.953125 256.917969 133.769531 256.144531 136.597656 C 256.074219 136.855469 256.15625 137.148438 256.167969 137.425781 C 256.414062 137.355469 256.691406 137.332031 256.90625 137.203125 C 260.371094 135.148438 263.828125 133.078125 267.289062 131.015625 C 270.9375 128.847656 274.585938 126.6875 278.242188 124.53125 C 278.796875 124.203125 279.363281 123.871094 279.964844 123.65625 C 282.191406 122.855469 282.273438 120.777344 282.703125 118.988281 C 284.339844 112.183594 285.898438 105.367188 287.464844 98.546875 C 288.417969 94.394531 289.101562 90.160156 290.3125 86.082031 C 291.964844 80.519531 298.125 78.027344 303.253906 80.960938 C 305.832031 82.433594 307.164062 84.710938 307.535156 87.660156 C 307.828125 89.984375 307.105469 92.132812 306.648438 94.320312 C 305.804688 98.359375 304.820312 102.371094 303.878906 106.386719 C 303.660156 107.3125 303.335938 108.210938 303.140625 109.136719 C 303.078125 109.425781 303.289062 109.765625 303.371094 110.082031 C 303.597656 110.015625 303.851562 109.992188 304.039062 109.867188 C 306.457031 108.3125 308.824219 106.667969 311.289062 105.1875 C 315.21875 102.828125 319.21875 100.582031 323.175781 98.273438 C 326.355469 96.417969 329.5 94.515625 332.691406 92.679688 C 334.558594 91.605469 336.386719 90.398438 338.390625 89.644531 C 342.582031 88.070312 346.875 89.863281 349.144531 93.589844 C 351.804688 97.964844 351.5625 102.125 347.605469 105.777344 C 346.164062 107.105469 344.269531 107.957031 342.542969 108.960938 C 338.171875 111.503906 333.796875 114.039062 329.394531 116.53125 C 325.679688 118.632812 321.921875 120.660156 318.1875 122.734375 C 316.566406 123.636719 314.949219 124.554688 313.355469 125.503906 C 313.101562 125.65625 312.96875 126.019531 312.78125 126.28125 C 313.023438 126.390625 313.261719 126.519531 313.515625 126.597656 C 315.371094 127.164062 317.234375 127.699219 319.082031 128.28125 C 323.1875 129.566406 327.273438 130.90625 331.386719 132.171875 C 335.265625 133.363281 338.144531 136.957031 337.511719 142.0625 C 337.148438 144.960938 334.683594 148.332031 330.652344 149.199219 C 327.792969 149.808594 325.292969 148.839844 322.707031 148.039062 C 315.753906 145.894531 308.796875 143.773438 301.847656 141.621094 C 298.683594 140.644531 295.558594 139.519531 292.359375 138.679688 C 291.4375 138.4375 290.171875 138.683594 289.316406 139.15625 C 284.140625 142.035156 279.042969 145.054688 273.90625 148.007812 C 271.289062 149.515625 268.636719 150.96875 266.019531 152.476562 C 265.765625 152.625 265.636719 152.996094 265.453125 153.261719 C 265.699219 153.363281 265.9375 153.503906 266.195312 153.570312 C 268.464844 154.136719 270.757812 154.632812 273.011719 155.257812 C 279.25 156.992188 285.472656 158.765625 291.695312 160.554688 C 293.429688 161.054688 295.15625 161.59375 296.84375 162.234375 C 299.84375 163.367188 301.601562 165.554688 302.191406 168.734375 C 303.132812 173.773438 300.09375 177.386719 296.230469 178.832031 C 294.175781 179.597656 292.015625 179.21875 289.929688 178.636719 C 283.277344 176.777344 276.628906 174.917969 269.976562 173.058594 C 264.320312 171.480469 258.660156 169.917969 253.015625 168.3125 C 250.238281 167.523438 247.511719 166.527344 244.707031 165.894531 C 243.816406 165.695312 242.613281 166.171875 241.75 166.675781 C 235.015625 170.597656 228.335938 174.617188 221.621094 178.574219 C 217.152344 181.207031 212.644531 183.773438 208.167969 186.398438 C 207.71875 186.660156 207.378906 187.097656 206.988281 187.453125 C 207.339844 187.746094 207.664062 188.09375 208.050781 188.328125 C 213.285156 191.476562 218.507812 194.640625 223.769531 197.742188 C 228.574219 200.574219 233.421875 203.332031 238.25 206.121094 C 239.558594 206.878906 240.824219 207.734375 242.195312 208.347656 C 243.046875 208.730469 244.148438 209.082031 244.984375 208.863281 C 251.289062 207.214844 257.5625 205.445312 263.832031 203.664062 C 268.226562 202.414062 272.582031 201.039062 276.976562 199.796875 C 281.675781 198.46875 286.390625 197.203125 291.113281 195.960938 C 295.710938 194.753906 300.4375 197.457031 301.914062 201.738281 C 303.5 206.351562 301.039062 211.636719 295.90625 213.128906 C 289.851562 214.886719 283.746094 216.476562 277.667969 218.152344 C 274.382812 219.0625 271.105469 220.007812 267.824219 220.921875 C 267.363281 221.050781 266.859375 221.054688 266.417969 221.222656 C 266.058594 221.359375 265.761719 221.65625 265.4375 221.882812 C 265.695312 222.121094 265.921875 222.414062 266.21875 222.589844 C 267.824219 223.519531 269.453125 224.40625 271.0625 225.328125 C 275.414062 227.820312 279.746094 230.335938 284.109375 232.804688 C 286.285156 234.035156 288.496094 235.199219 290.71875 236.335938 C 291.039062 236.496094 291.554688 236.40625 291.933594 236.289062 C 297.890625 234.441406 303.832031 232.542969 309.796875 230.707031 C 315.230469 229.035156 320.667969 227.375 326.132812 225.804688 C 331.585938 224.234375 337.550781 228.25 337.53125 234.164062 C 337.515625 239.046875 334.46875 242.050781 329.738281 243.496094 C 326.519531 244.480469 323.28125 245.375 320.054688 246.324219 C 317.949219 246.945312 315.84375 247.578125 313.75 248.242188 C 313.390625 248.355469 313.089844 248.660156 312.761719 248.875 C 313 249.125 313.195312 249.445312 313.480469 249.609375 C 317.390625 251.804688 321.335938 253.949219 325.230469 256.171875 C 330.9375 259.425781 336.621094 262.722656 342.304688 266.019531 C 344.027344 267.019531 345.746094 268.039062 347.414062 269.132812 C 349.332031 270.390625 350.175781 272.320312 350.558594 274.515625 C 351.28125 278.613281 349.535156 281.796875 346.460938 284.097656 C 343.304688 286.457031 340.136719 286.558594 336.125 284.3125 C 332.765625 282.433594 329.453125 280.46875 326.144531 278.507812 C 321.078125 275.507812 316.03125 272.464844 310.96875 269.457031 C 308.847656 268.199219 306.707031 266.980469 304.566406 265.765625 C 304.238281 265.578125 303.84375 265.503906 303.484375 265.378906 C 303.421875 265.847656 303.234375 266.34375 303.324219 266.78125 C 303.613281 268.226562 304.027344 269.644531 304.351562 271.082031 C 305.289062 275.289062 306.128906 279.515625 307.15625 283.703125 C 307.996094 287.125 307.355469 290.113281 304.882812 292.605469 C 301.785156 295.730469 297.476562 296.058594 293.703125 293.664062 C 291.160156 292.050781 290.242188 289.488281 289.597656 286.761719 C 288.480469 282.027344 287.332031 277.300781 286.273438 272.554688 C 285.023438 266.941406 283.777344 261.324219 282.691406 255.675781 C 282.195312 253.101562 280.6875 251.640625 278.527344 250.410156 C 271.652344 246.488281 264.847656 242.445312 258 238.472656 C 257.5625 238.21875 257 238.183594 256.492188 238.046875 C 256.496094 238.527344 256.398438 239.035156 256.515625 239.484375 C 257.945312 245.011719 259.449219 250.519531 260.851562 256.054688 C 262.046875 260.761719 263.429688 265.453125 264.175781 270.238281 C 264.664062 273.367188 263.074219 276.15625 260.355469 277.960938 C 256.507812 280.519531 252.453125 280.03125 249.175781 277.136719 C 247.457031 275.617188 246.738281 273.390625 246.179688 271.167969 C 244.664062 265.164062 243.109375 259.171875 241.578125 253.175781 C 239.964844 246.839844 238.355469 240.503906 236.742188 234.167969 C 236.066406 231.523438 235.359375 228.890625 234.714844 226.242188 C 234.347656 224.730469 233.019531 224.335938 231.910156 223.699219 C 226.363281 220.527344 220.796875 217.382812 215.242188 214.21875 C 210.363281 211.441406 205.492188 208.648438 200.613281 205.867188 C 199.867188 205.4375 199.113281 205.011719 198.351562 204.613281 C 197.105469 203.96875 196.964844 204.0625 196.960938 205.515625 C 196.953125 208.761719 196.976562 212.007812 196.949219 215.257812 C 196.863281 225.332031 196.769531 235.402344 196.640625 245.476562 C 196.625 246.523438 196.980469 247.265625 197.699219 247.972656 C 203.609375 253.769531 209.496094 259.585938 215.394531 265.390625 C 220.007812 269.925781 224.65625 274.421875 229.230469 278.992188 C 230.761719 280.523438 232.429688 282.046875 233.484375 283.890625 C 235.277344 287.007812 234.847656 290.320312 232.722656 293.15625 C 230.675781 295.890625 227.710938 297.003906 224.304688 296.582031 C 222.40625 296.351562 220.722656 295.453125 219.355469 294.121094 C 214.550781 289.449219 209.777344 284.75 205.007812 280.046875 C 202.527344 277.605469 200.089844 275.125 197.621094 272.675781 C 197.382812 272.441406 197.046875 272.308594 196.757812 272.128906 C 196.628906 272.492188 196.378906 272.859375 196.386719 273.21875 C 196.433594 274.851562 196.628906 276.480469 196.621094 278.113281 C 196.613281 280.160156 196.363281 282.210938 196.378906 284.257812 C 196.417969 289.757812 196.503906 295.253906 196.675781 300.75 C 196.699219 301.449219 197.199219 302.273438 197.726562 302.785156 C 199.414062 304.433594 201.242188 305.9375 202.972656 307.546875 C 206.09375 310.445312 209.175781 313.390625 212.289062 316.300781 C 214.792969 318.640625 217.355469 320.917969 219.8125 323.308594 C 221.679688 325.125 223.707031 326.882812 225.152344 329.011719 C 227.492188 332.457031 226.210938 337.390625 223.011719 340.066406 C 219.632812 342.894531 213.960938 342.339844 211.171875 339.457031 C 209.375 337.601562 207.335938 335.972656 205.429688 334.214844 C 202.742188 331.734375 200.074219 329.230469 197.390625 326.742188 C 197.265625 326.621094 196.96875 326.480469 196.921875 326.523438 C 196.777344 326.664062 196.625 326.890625 196.628906 327.082031 C 196.703125 329.828125 196.800781 332.570312 196.890625 335.3125 C 196.898438 335.640625 196.890625 335.964844 196.890625 336.289062 C 196.886719 345.984375 196.960938 355.679688 196.835938 365.371094 C 196.78125 369.753906 194.277344 372.800781 190.214844 373.921875 C 186.621094 374.914062 183.207031 374.164062 180.480469 371.550781 C 178.914062 370.054688 177.988281 368.003906 177.976562 365.800781 C 177.917969 356.015625 177.9375 346.226562 177.976562 336.441406 C 177.988281 333.414062 178.160156 330.394531 178.238281 327.371094 C 178.246094 327.035156 178.121094 326.699219 178.058594 326.363281 C 177.773438 326.570312 177.464844 326.753906 177.207031 326.992188 C 174.292969 329.707031 171.414062 332.460938 168.46875 335.144531 C 166.433594 336.996094 164.460938 338.976562 162.195312 340.515625 C 157.089844 343.976562 149.820312 341.082031 148.703125 334.640625 C 148.136719 331.382812 149.25 328.8125 151.410156 326.660156 C 154.816406 323.257812 158.375 320.003906 161.886719 316.707031 C 164.386719 314.359375 166.902344 312.03125 169.433594 309.722656 C 172.15625 307.246094 174.917969 304.8125 177.636719 302.328125 C 177.9375 302.054688 178.078125 301.59375 178.25 301.199219 C 178.316406 301.042969 178.257812 300.835938 178.261719 300.648438 C 178.359375 291.503906 178.460938 282.355469 178.542969 273.210938 C 178.546875 272.789062 178.359375 272.363281 178.261719 271.941406 C 177.933594 272.183594 177.570312 272.390625 177.285156 272.675781 C 175.140625 274.796875 173.027344 276.945312 170.878906 279.0625 C 165.769531 284.085938 160.6875 289.132812 155.523438 294.09375 C 153.28125 296.246094 150.445312 297.144531 147.425781 296.421875 C 143.910156 295.578125 141.566406 293.398438 140.65625 289.6875 C 139.660156 285.636719 142.058594 281.847656 144.851562 279.589844 C 145.089844 279.394531 145.363281 279.230469 145.582031 279.011719 C 154.015625 270.691406 162.4375 262.355469 170.875 254.042969 C 173.003906 251.945312 175.238281 249.949219 177.320312 247.808594 C 177.847656 247.265625 178.246094 246.339844 178.25 245.585938 C 178.316406 236.167969 178.324219 226.753906 178.292969 217.335938 C 178.277344 213.617188 178.101562 209.898438 178.039062 206.179688 C 178.003906 203.960938 178.003906 203.890625 175.941406 205.03125 C 171.21875 207.644531 166.539062 210.339844 161.835938 212.984375 C 158.265625 214.996094 154.675781 216.976562 151.101562 218.988281 C 147.867188 220.808594 144.617188 222.613281 141.4375 224.527344 C 140.859375 224.875 140.386719 225.671875 140.203125 226.351562 C 138.851562 231.316406 137.582031 236.308594 136.289062 241.292969 C 134.886719 246.699219 133.472656 252.097656 132.085938 257.507812 C 130.765625 262.667969 129.65625 267.890625 128.117188 272.988281 C 127.0625 276.476562 124.664062 278.753906 120.769531 279.335938 C 115.53125 280.121094 111.289062 275.949219 110.855469 271.773438 C 110.554688 268.894531 111.5625 266.367188 112.191406 263.746094 C 113.800781 257.058594 115.605469 250.414062 117.34375 243.757812 C 117.800781 242 118.292969 240.253906 118.75 238.496094 C 118.832031 238.191406 118.835938 237.867188 118.875 237.550781 C 118.539062 237.640625 118.171875 237.671875 117.882812 237.835938 C 115.296875 239.332031 112.726562 240.851562 110.152344 242.367188 C 106.984375 244.234375 103.820312 246.117188 100.640625 247.964844 C 98.738281 249.074219 96.820312 250.15625 94.886719 251.207031 C 93.238281 252.105469 92.800781 253.636719 92.421875 255.320312 C 90.9375 261.980469 89.375 268.621094 87.816406 275.261719 C 86.726562 279.90625 85.632812 284.554688 84.460938 289.179688 C 83.652344 292.371094 81.238281 294.035156 78.292969 294.828125 C 72.875 296.28125 67.910156 292.164062 67.464844 287.042969 C 67.226562 284.3125 68.136719 281.816406 68.648438 279.25 C 69.449219 275.25 70.46875 271.289062 71.410156 267.316406 C 71.527344 266.816406 71.746094 266.339844 71.882812 265.84375 C 71.960938 265.566406 71.964844 265.269531 72 264.976562 C 71.695312 265.011719 71.328125 264.949219 71.085938 265.09375 C 68.882812 266.390625 66.703125 267.734375 64.507812 269.042969 C 61.3125 270.953125 58.105469 272.851562 54.902344 274.746094 C 54.519531 274.972656 54.117188 275.160156 53.65625 275.4375 Z M 53.65625 275.4375 " fill-opacity="1" fill-rule="nonzero"/></svg>